<svg xmlns="http://www.w3.org/2000/svg" width="52.48" height="32" viewBox="0 0 52.48 32"><defs><style>.a,.c{fill:#f27930;}.a,.b{fill-rule:evenodd;}.b,.d{fill:#143a72;}</style></defs><g transform="translate(367 -232)"><g transform="translate(-367 232)"><path class="a" d="M37.469,100.48l3.179,2.757a4.75,4.75,0,0,1,1.482,3.8c0,3.357-3.458,4.94-4.636,7.755a5.608,5.608,0,0,0-.5,2.546c.027.329.23,1.7.629,1.794,2.989.7,5.438-1.4,4.477-4.754a4.322,4.322,0,0,0-.812-1.852h.188l3.179,2.806a3.456,3.456,0,0,1,1.028,2.2,4.469,4.469,0,0,1-4.415,4.738,3.969,3.969,0,0,1-2.619-.935L35,118.15a4.111,4.111,0,0,1-1.32-3.449c0-3.163,2.563-4.992,3.726-7.711a8.012,8.012,0,0,0,.638-3.375,4.558,4.558,0,0,0-.687-2.987Z" transform="translate(-30.24 -100.48)"/><path class="b" d="M15.344,323.959c.01.009,3.527,3.011,3.818,3.263l-.19.054a5.994,5.994,0,0,0-3.735-1.315,9.9,9.9,0,0,0-3.861.756q-.846.312-1.679.649a5.49,5.49,0,0,1-2.636.45,7.349,7.349,0,0,1-3.7-2.112L.27,323.037c.014.009.176-.055.19-.047A8.455,8.455,0,0,0,6.186,324.2c.865-.119,4.048-1.667,4.985-1.674a6.4,6.4,0,0,1,1.76.09,6.347,6.347,0,0,1,2.414,1.342" transform="translate(-0.27 -299.649)"/></g><g transform="translate(-349.263 234.216)"><g transform="translate(0 12.777)"><path class="c" d="M174.85,256.036c.736-.044,1.292-.119,1.358-.386a3.74,3.74,0,0,0,.065-.906v-6.9a3.753,3.753,0,0,0-.065-.907c-.066-.267-.622-.342-1.358-.386v-.461H180v.461c-.736.044-1.292.119-1.358.386a3.7,3.7,0,0,0-.066.907v7c0,1.01.605,1.1,1.931,1.1,2.094,0,2.405-.818,3.075-2.141h.459l-.49,2.692H174.85Z" transform="translate(-174.85 -246.089)"/><path class="c" d="M278.531,254.734a3.735,3.735,0,0,0,.065.906c.065.268.622.343,1.359.387v.461H274.8v-.461c.736-.044,1.292-.119,1.357-.387a3.679,3.679,0,0,0,.066-.906v-6.9a3.7,3.7,0,0,0-.066-.907c-.065-.267-.62-.342-1.357-.386v-.461h5.155v.461c-.737.044-1.293.119-1.359.386a3.752,3.752,0,0,0-.065.907Z" transform="translate(-264.508 -246.08)"/><path class="c" d="M336.931,246.08h8.049v2.394h-.442c-.244-1.056-.654-1.844-1.8-1.844h-2.078v4.461h1.555a1.324,1.324,0,0,0,1.489-1.427h.442v3.464H343.7c-.048-.819-.392-1.487-1.489-1.487h-1.555v3.092a3.679,3.679,0,0,0,.066.906c.065.268.622.343,1.357.387v.461H336.93v-.461c.736-.044,1.292-.119,1.358-.387a3.736,3.736,0,0,0,.065-.906v-6.9a3.754,3.754,0,0,0-.065-.907c-.066-.267-.622-.342-1.358-.386v-.46Z" transform="translate(-320.241 -246.08)"/><path class="c" d="M422.59,256.036c.719-.044,1.291-.119,1.358-.386a3.746,3.746,0,0,0,.065-.906v-6.9a3.759,3.759,0,0,0-.065-.907c-.067-.267-.638-.342-1.358-.386v-.461h8.033v2.394h-.442c-.246-1.057-.637-1.843-1.783-1.843H426.32V250.8h1.357a1.3,1.3,0,0,0,1.472-1.427h.442v3.464h-.442a1.344,1.344,0,0,0-1.472-1.487H426.32v3.375c0,1.13.6,1.219,1.947,1.219,2.077,0,2.389-.818,3.075-2.141h.443l-.49,2.692h-8.7Z" transform="translate(-397.08 -246.089)"/></g><g transform="translate(0.046)"><path class="d" d="M209.73,132.2c-.548-.075-.753-.385-1.386-1.285l-3.031-4.336,2.4-3.27a2.036,2.036,0,0,1,1.246-.62.612.612,0,0,0,.388-.506h-3.355a.593.593,0,0,0,.387.545c.358.14.561.457.224.926l-1.756,2.339-1.515-2.265c-.482-.721-.2-.994.248-1.061a.514.514,0,0,0,.36-.485h-4.448a.546.546,0,0,0,.391.52,1.961,1.961,0,0,1,1.182.891l2.506,3.78-2.416,3.345a4.222,4.222,0,0,1-.98,1.169.645.645,0,0,1-.735.015v0a2.676,2.676,0,0,1-.686-1.045c-.592-1.441-2.53-6.377-3.49-8.852h-1.041c-1.345,3.3-3.3,8.178-3.874,9.3a1.625,1.625,0,0,1-1.279.907s-1.183.195-1.307-.666c-.018-.178-.018-.367-.018-.632v-6.8c0-.853.274-1.338,1.084-1.447v0a.48.48,0,0,0,.352-.487h-2.89l-4.035,7.786-3.856-7.786h-3.1s-.009.444.316.47v0c.623.042,1.122.264,1.21,1.326v6.5a8.961,8.961,0,0,1-.074.991c-.058.388-.314.6-.808.7v0a.522.522,0,0,0-.445.519h3.4v-.042a.569.569,0,0,0-.442-.474c-.5-.095-.772-.306-.821-.7a4.944,4.944,0,0,1-.075-.991v-5.521h.031l3.766,7.727h.359l3.871-7.486h.045v5.716a4.137,4.137,0,0,1-.06.915c-.044.2-.343.295-.772.347a.522.522,0,0,0-.416.508h7.7a.6.6,0,0,0-.42-.535c-.392-.152-.491-.537-.317-1.025l.639-1.785h3.908l.656,1.755c.194.5.159.885-.249,1.045a.611.611,0,0,0-.471.545h6.3a.551.551,0,0,0-.419-.561v0c-.269-.162-.307-.541.2-1.249l2.084-2.881,2.115,3.061c.527.786.3,1.05-.085,1.134a.556.556,0,0,0-.407.5h4.381a.518.518,0,0,0-.265-.485m-17.458-3.536L194,124.282h.031l1.587,4.381Z" transform="translate(-175.3 -122)"/></g><g transform="translate(0.708 25.991)"><rect class="d" width="0.666" height="3.674" transform="translate(0 0.062)"/><path class="d" d="M206.2,378h-.01l-1.1-2.965-.01-.027h-1.06v3.674h.667v-2.991h.005l1.123,2.966.009.026h1.033V375.01H206.2Z" transform="translate(-201.725 -374.948)"/><path class="d" d="M247.577,376.027c-.609-.19-.74-.292-.74-.575,0-.349.323-.421.594-.421.3,0,1,.071,1.008.072l.042,0,.024-.571-.033-.006a6.4,6.4,0,0,0-1.073-.121c-.786,0-1.219.373-1.219,1.047s.327.89,1.062,1.129c.524.16.7.254.7.508,0,.343-.186.489-.624.489-.321,0-1-.077-1.009-.077l-.041-.005-.037.587.036.006a7.819,7.819,0,0,0,1.1.11c.857,0,1.239-.349,1.239-1.131,0-.639-.311-.809-1.024-1.046" transform="translate(-239.544 -374.41)"/><path class="d" d="M284.68,377.5c0,.425-.195.6-.672.6s-.656-.173-.656-.6V375.01h-.662V377.5c0,.854.407,1.235,1.318,1.235s1.333-.381,1.333-1.235V375.01h-.661Z" transform="translate(-272.294 -374.948)"/><path class="d" d="M326.787,376.2c0-.789-.419-1.188-1.245-1.188H324.21v3.674h.657v-1.262h.625l.086,0,.507,1.267h.727l-.586-1.428a1.064,1.064,0,0,0,.561-1.058m-1.919-.574h.675a.529.529,0,0,1,.567.583.54.54,0,0,1-.557.615h-.686Z" transform="translate(-309.539 -374.948)"/><path class="d" d="M363.08,375.01h-1.17l-.878,3.625-.012.049h.663l.187-.742h1.217l.212.742h.663l-.874-3.643Zm-.525.589.4,1.723h-.943l.412-1.723Z" transform="translate(-342.559 -374.948)"/><path class="d" d="M405.116,378H405.1l-1.1-2.965L404,375.01h-1.06v3.674h.666v-2.991l1.126,2.966.01.026h1.035V375.01h-.662Z" transform="translate(-380.162 -374.948)"/><path class="d" d="M447.265,377.5c-.006,0-.628.067-.867.067-.587,0-.765-.292-.765-1.253s.175-1.263.75-1.263c.27,0,.876.071.883.072l.042.005.025-.591-.033-.006a6.057,6.057,0,0,0-1-.121c-1.123,0-1.353.762-1.353,1.9,0,1.166.227,1.888,1.353,1.888a7.673,7.673,0,0,0,.989-.1l.035-.006-.019-.6Z" transform="translate(-417.846 -374.41)"/><path class="d" d="M484.276,375.625v-.615H482.01v3.674h2.266v-.62h-1.609v-.906h1.3v-.6h-1.3v-.929Z" transform="translate(-451.09 -374.948)"/></g></g></g></svg>